<svg xmlns="http://www.w3.org/2000/svg" width="900" height="270" viewBox="0 0 900 270" role="img" aria-labelledby="t d">
<title id="t">Suorena Saeidi — Data × AI × Control</title><desc id="d">A personal systems map connecting data, agentic AI, and control.</desc>
<defs>
<linearGradient id="bg" x1="0" y1="0" x2="1" y2="1"><stop stop-color="#06090e"/><stop offset=".58" stop-color="#0a1020"/><stop offset="1" stop-color="#150e21"/></linearGradient>
<linearGradient id="cv"><stop stop-color="#67edf7"/><stop offset=".52" stop-color="#8ea0ff"/><stop offset="1" stop-color="#c68cff"/></linearGradient>
<linearGradient id="gold"><stop stop-color="#a47a35"/><stop offset="1" stop-color="#f1c66a"/></linearGradient>
<pattern id="grid" width="28" height="28" patternUnits="userSpaceOnUse"><path d="M28 0H0V28" fill="none" stroke="#fff" stroke-opacity=".025"/></pattern>
<filter id="glow" x="-100%" y="-100%" width="300%" height="300%"><feGaussianBlur stdDeviation="4" result="b"/><feMerge><feMergeNode in="b"/><feMergeNode in="SourceGraphic"/></feMerge></filter>
</defs>
<rect width="900" height="270" rx="22" fill="url(#bg)"/><rect x="1" y="1" width="898" height="268" rx="21" fill="none" stroke="#fff" stroke-opacity=".08"/><rect width="900" height="270" rx="22" fill="url(#grid)"/>
<g font-family="Inter,Segoe UI,Arial,sans-serif">
<circle cx="48" cy="42" r="4" fill="#72f2b5"/><text x="62" y="48" font-size="14" letter-spacing="2.3" fill="#aab4c6">SUORENA SAEIDI</text>
<text x="48" y="108" font-size="43" font-weight="700" fill="#f4f7fb">Data × AI × Control</text>
<rect x="48" y="126" width="390" height="2" rx="1" fill="url(#cv)"/>
<text x="48" y="167" font-size="21" fill="#cbd4e3">Intelligence for decisions.</text>
<text x="48" y="197" font-size="21" fill="#fff">Models for motion.</text>
<text x="48" y="239" font-size="12" letter-spacing="1.5" fill="#909aae">DATA SCIENCE LEAD EXPERT  ·  PHD RESEARCHER</text>
<rect x="48" y="253" width="104" height="3" rx="2" fill="url(#gold)"/>
<g transform="translate(620 26)">
<text x="112" y="10" text-anchor="middle" font-size="11" letter-spacing="2.2" fill="#69758b">SIGNATURE LOOP</text>
<circle cx="112" cy="118" r="82" fill="#0b1019" stroke="#fff" stroke-opacity=".05"/>
<circle cx="112" cy="118" r="62" fill="none" stroke="url(#cv)" stroke-opacity=".48" stroke-width="1.5" stroke-dasharray="3 7"/>
<circle cx="112" cy="118" r="33" fill="#101625" stroke="url(#cv)" stroke-width="1.6"/>
<circle cx="112" cy="118" r="6" fill="#77eef7" filter="url(#glow)"/>
<path d="M30 118H72M152 118h42M112 54V84M112 152v34" stroke="#99a6bd" stroke-opacity=".55" stroke-width="1.7"/>
<circle cx="24" cy="118" r="14" fill="#0c1d25" stroke="#67edf7" stroke-opacity=".65"/><text x="24" y="122" text-anchor="middle" font-size="12" font-weight="700" fill="#86f2f8">D</text>
<circle cx="200" cy="118" r="14" fill="#21152d" stroke="#c68cff" stroke-opacity=".65"/><text x="200" y="122" text-anchor="middle" font-size="12" font-weight="700" fill="#deb9ff">C</text>
<circle cx="112" cy="42" r="14" fill="#151a31" stroke="#8ea0ff" stroke-opacity=".7"/><text x="112" y="46" text-anchor="middle" font-size="12" font-weight="700" fill="#afbbff">AI</text>
<circle cx="112" cy="198" r="14" fill="#17151b" stroke="#f1c66a" stroke-opacity=".65"/><text x="112" y="202" text-anchor="middle" font-size="11" font-weight="700" fill="#f1d28c">A</text>
<text x="112" y="111" text-anchor="middle" font-size="10" letter-spacing="1.4" fill="#7f8aa0">MODEL</text><text x="112" y="133" text-anchor="middle" font-size="10" letter-spacing="1.4" fill="#f4f7fb">SYSTEM</text>
<text x="24" y="148" text-anchor="middle" font-size="9" fill="#667287">DATA</text><text x="200" y="148" text-anchor="middle" font-size="9" fill="#667287">CONTROL</text>
</g>
</g></svg>