<svg xmlns="http://www.w3.org/2000/svg" width="900" height="408" viewBox="0 0 900 408" role="img" aria-labelledby="t d">
<title id="t">Selected work</title><desc id="d">Four selected projects with compact visual signatures.</desc>
<rect width="900" height="408" rx="22" fill="#080b12"/>
<g font-family="Inter,Segoe UI,Arial,sans-serif">
<text x="30" y="36" font-size="12" letter-spacing="2.1" fill="#6f7b91">SELECTED WORK</text>
<g transform="translate(28 58)"><rect width="410" height="148" rx="18" fill="#0a151e" stroke="#67e8f9" stroke-opacity=".22"/><text x="20" y="30" font-size="12" letter-spacing="1.6" fill="#67e8f9">01 / DIGIOPTIMISER</text><text x="20" y="60" font-size="21" font-weight="700" fill="#f4f7fb">Multi-objective decisions</text><text x="20" y="86" font-size="13" fill="#8f9aab">Optimization · Pareto search</text><g transform="translate(262 82)"><path d="M0 36C24 34 28 26 47 23s28-20 45-21 31 4 47-2" fill="none" stroke="#67e8f9" stroke-width="2"/><circle cx="0" cy="36" r="3" fill="#67e8f9"/><circle cx="47" cy="23" r="3" fill="#67e8f9"/><circle cx="92" cy="2" r="3" fill="#67e8f9"/><circle cx="139" r="3" fill="#67e8f9"/></g></g>
<g transform="translate(462 58)"><rect width="410" height="148" rx="18" fill="#111528" stroke="#8ea0ff" stroke-opacity=".22"/><text x="20" y="30" font-size="12" letter-spacing="1.6" fill="#9eacff">02 / BASKET OPTIMIZER</text><text x="20" y="60" font-size="21" font-weight="700" fill="#f4f7fb">Productized optimization</text><text x="20" y="86" font-size="13" fill="#8f9aab">Journey · Basket · Decision</text><g transform="translate(275 72)"><circle cx="18" cy="18" r="10" fill="#8ea0ff"/><circle cx="74" cy="12" r="8" fill="#8ea0ff" opacity=".8"/><circle cx="122" cy="36" r="9" fill="#8ea0ff" opacity=".65"/><path d="M28 17L66 13M81 17l33 15" stroke="#8ea0ff" stroke-opacity=".65" stroke-width="2"/></g></g>
<g transform="translate(28 226)"><rect width="410" height="148" rx="18" fill="#111528" stroke="#8ea0ff" stroke-opacity=".22"/><text x="20" y="30" font-size="12" letter-spacing="1.6" fill="#9eacff">03 / CANCELLATION</text><text x="20" y="60" font-size="21" font-weight="700" fill="#f4f7fb">Early-warning forecasting</text><text x="20" y="86" font-size="13" fill="#8f9aab">Transactional · Temporal signals</text><g transform="translate(280 78)"><rect width="20" height="38" rx="4" fill="#8ea0ff" opacity=".25"/><rect x="30" y="22" width="20" height="16" rx="4" fill="#8ea0ff" opacity=".5"/><rect x="60" y="11" width="20" height="27" rx="4" fill="#8ea0ff" opacity=".75"/><rect x="90" width="20" height="38" rx="4" fill="#8ea0ff"/></g></g>
<g transform="translate(462 226)"><rect width="410" height="148" rx="18" fill="#17101f" stroke="#c084fc" stroke-opacity=".22"/><text x="20" y="30" font-size="12" letter-spacing="1.6" fill="#d0a8ff">04 / AGENTIC SYSTEMS</text><text x="20" y="60" font-size="21" font-weight="700" fill="#f4f7fb">Tools + memory + humans</text><text x="20" y="86" font-size="13" fill="#8f9aab">Orchestration by design</text><g transform="translate(287 73)"><circle cx="50" cy="20" r="13" fill="#20162b" stroke="#c084fc"/><circle cx="10" cy="4" r="7" fill="#c084fc" opacity=".55"/><circle cx="92" cy="4" r="7" fill="#c084fc" opacity=".55"/><circle cx="10" cy="42" r="7" fill="#c084fc" opacity=".55"/><circle cx="92" cy="42" r="7" fill="#c084fc" opacity=".55"/><path d="M17 8L38 16M85 8L62 16M17 38L38 25M85 38L62 25" stroke="#c084fc" stroke-opacity=".65"/></g></g>
</g></svg>